<?xml version="1.0" ?><!DOCTYPE svg  PUBLIC '-//W3C//DTD SVG 1.1//EN'  'http://www.w3.org/Graphics/SVG/1.1/DTD/svg11.dtd' [
	<!ENTITY stroke_color "#666666">
	<!ENTITY fill_color "#ffffff">
]><svg enable-background="new 0 0 55 55" height="55px" id="Layer_1" version="1.1" viewBox="0 0 55 55" width="55px" x="0px" xml:space="preserve" xmlns="http://www.w3.org/2000/svg" xmlns:xlink="http://www.w3.org/1999/xlink" y="0px"><g display="block" id="module-about_x5F_me_1_">
	<path d="M33.359,35.101L43.46,45.201c0.752,0.75,1.217,1.784,1.217,2.932   c0,2.287-1.855,4.143-4.146,4.143c-1.145,0-2.178-0.463-2.932-1.211L27.498,40.963l-10.1,10.1c-0.75,0.75-1.787,1.211-2.933,1.211   c-2.285,0-4.143-1.854-4.143-4.141c0-1.146,0.465-2.184,1.212-2.934l10.104-10.101L11.535,24.997   c-0.747-0.749-1.212-1.785-1.212-2.93c0-2.289,1.854-4.145,4.146-4.145c1.143,0,2.18,0.465,2.93,1.214l10.099,10.101l10.101-10.102   c0.754-0.749,1.787-1.214,2.934-1.214c2.289,0,4.146,1.856,4.146,4.145c0,1.145-0.467,2.179-1.217,2.93L33.359,35.101z" fill="&fill_color;" stroke="&stroke_color;" stroke-width="3.5"/>
	<circle cx="27.497" cy="10.849" fill="&fill_color;" r="8.122" stroke="&stroke_color;" stroke-width="3.5"/>
</g></svg>