<?xml version="1.0" ?><!DOCTYPE svg  PUBLIC '-//W3C//DTD SVG 1.1//EN'  'http://www.w3.org/Graphics/SVG/1.1/DTD/svg11.dtd'><svg enable-background="new 0 0 55 55" height="55px" version="1.1" viewBox="0 0 55 55" width="55px" x="0px" xml:space="preserve" xmlns="http://www.w3.org/2000/svg" xmlns:xlink="http://www.w3.org/1999/xlink" y="0px"><g display="block" id="arrow_x5F_NE">
	<g display="inline">
		<g>
			<path d="M20.154,15.718c-0.896,0-1.794,0.344-2.481,1.028c-1.373,1.372-1.373,3.598,0,4.969c0.686,0.686,1.585,1.026,2.481,1.026     h7.137L16.745,33.29c-0.633,0.635-1.026,1.514-1.029,2.482c0.003,1.939,1.576,3.512,3.514,3.512c0.972,0,1.848-0.395,2.483-1.028     l10.546-10.545v7.136c0,0.898,0.342,1.799,1.029,2.482c1.369,1.373,3.595,1.371,4.965,0c0.687-0.686,1.028-1.588,1.031-2.482     V15.716L20.154,15.718z"/>
		</g>
	</g>
</g></svg>