<?xml version="1.0" ?><!DOCTYPE svg  PUBLIC '-//W3C//DTD SVG 1.1//EN'  'http://www.w3.org/Graphics/SVG/1.1/DTD/svg11.dtd'><svg enable-background="new 0 0 55 55" height="55px" version="1.1" viewBox="0 0 55 55" width="55px" x="0px" xml:space="preserve" xmlns="http://www.w3.org/2000/svg" xmlns:xlink="http://www.w3.org/1999/xlink" y="0px"><g display="block" id="arrow_x5F_SE">
	<g display="inline">
		<g>
			<path d="M39.282,20.154c0-0.896-0.344-1.794-1.028-2.481c-1.372-1.373-3.598-1.373-4.969,0c-0.686,0.686-1.026,1.585-1.026,2.481     v7.137L21.709,16.745c-0.635-0.633-1.514-1.026-2.482-1.029c-1.939,0.003-3.512,1.576-3.512,3.514     c0,0.972,0.395,1.848,1.028,2.483l10.545,10.546h-7.136c-0.898,0-1.799,0.342-2.482,1.029c-1.373,1.369-1.371,3.595,0,4.965     c0.686,0.687,1.588,1.028,2.482,1.031h19.131L39.282,20.154z"/>
		</g>
	</g>
</g></svg>