<?xml version="1.0" ?><!DOCTYPE svg  PUBLIC '-//W3C//DTD SVG 1.1//EN'  'http://www.w3.org/Graphics/SVG/1.1/DTD/svg11.dtd'><svg enable-background="new 0 0 55 55" height="55px" version="1.1" viewBox="0 0 55 55" width="55px" x="0px" xml:space="preserve" xmlns="http://www.w3.org/2000/svg" xmlns:xlink="http://www.w3.org/1999/xlink" y="0px"><g display="block" id="arrow_x5F_NW">
	<g display="inline">
		<g>
			<path d="M38.255,33.287L27.71,22.741h7.136c0.898,0,1.799-0.342,2.482-1.029c1.373-1.369,1.371-3.595,0-4.965     c-0.686-0.687-1.588-1.029-2.482-1.031H15.715l0.002,19.13c0,0.896,0.344,1.794,1.028,2.481c1.372,1.373,3.598,1.373,4.969,0     c0.686-0.686,1.026-1.585,1.026-2.481v-7.137L33.29,38.255c0.635,0.633,1.514,1.026,2.482,1.029     c1.939-0.003,3.512-1.576,3.512-3.514C39.284,34.799,38.889,33.923,38.255,33.287z"/>
		</g>
	</g>
</g></svg>