<?xml version="1.0" ?><!DOCTYPE svg  PUBLIC '-//W3C//DTD SVG 1.1//EN'  'http://www.w3.org/Graphics/SVG/1.1/DTD/svg11.dtd'><svg enable-background="new 0 0 55 55" height="55px" version="1.1" viewBox="0 0 55 55" width="55px" x="0px" xml:space="preserve" xmlns="http://www.w3.org/2000/svg" xmlns:xlink="http://www.w3.org/1999/xlink" y="0px"><g display="block" id="arrow_x5F_SW">
	<g>
		<g>
			<path d="M34.845,32.259h-7.137L38.254,21.71c0.633-0.635,1.026-1.514,1.029-2.482c-0.003-1.939-1.576-3.512-3.514-3.512     c-0.972,0-1.848,0.395-2.483,1.028L22.741,27.289v-7.136c0-0.898-0.342-1.799-1.029-2.482c-1.369-1.373-3.595-1.371-4.965,0     c-0.687,0.686-1.029,1.588-1.031,2.482v19.131l19.13-0.002c0.896,0,1.794-0.344,2.481-1.028c1.373-1.372,1.373-3.598,0-4.969     C36.641,32.6,35.742,32.259,34.845,32.259z"/>
		</g>
	</g>
</g></svg>