<svg xmlns="http://www.w3.org/2000/svg" width="32" height="32" viewBox="0 0 32 32"><path d="M29.448 15.936c0 2.661-.029 4.502-.087 5.525-.116 2.416-.836 4.288-2.161 5.613s-3.195 2.045-5.613 2.161c-1.023.057-2.864.087-5.525.087s-4.502-.029-5.525-.087c-2.416-.116-4.287-.836-5.612-2.161s-2.045-3.195-2.161-5.613c-.059-1.021-.087-2.864-.087-5.525s.029-4.502.087-5.525c.116-2.416.836-4.287 2.161-5.612s3.195-2.045 5.612-2.161c1.021-.057 2.864-.087 5.525-.087s4.502.029 5.525.087c2.416.116 4.288.836 5.613 2.161s2.045 3.195 2.161 5.612c.059 1.023.087 2.864.087 5.525zM17.396 4.948c-.807.005-1.252.009-1.334.009s-.525-.004-1.334-.009c-.807-.005-1.42-.005-1.839 0-.418.005-.979.023-1.682.052s-1.302.088-1.795.175c-.495.088-.909.195-1.246.323-.58.232-1.093.57-1.534 1.011s-.779.954-1.011 1.534c-.129.338-.236.752-.323 1.246s-.145 1.093-.175 1.795c-.029.704-.046 1.264-.052 1.682s-.005 1.032 0 1.839c.005.807.009 1.252.009 1.334s-.004.525-.009 1.334c-.005.807-.005 1.42 0 1.839.005.418.023.979.052 1.682s.088 1.302.175 1.795c.088.495.195.909.323 1.246.232.58.57 1.093 1.011 1.534s.952.779 1.534 1.011c.338.129.752.236 1.246.323.493.087 1.093.145 1.795.175.704.029 1.264.046 1.682.052s1.03.005 1.839 0c.807-.005 1.252-.009 1.334-.009.08 0 .525.004 1.334.009.807.005 1.42.005 1.839 0 .418-.005.979-.023 1.682-.052s1.302-.087 1.795-.175c.493-.087.909-.195 1.246-.323.58-.232 1.093-.57 1.534-1.011s.779-.952 1.011-1.534c.129-.337.236-.752.323-1.246.087-.493.145-1.093.175-1.795.029-.704.046-1.264.052-1.682s.005-1.03 0-1.839c-.005-.807-.009-1.252-.009-1.334 0-.08.004-.525.009-1.334.005-.807.005-1.42 0-1.839-.005-.418-.023-.979-.052-1.682s-.087-1.302-.175-1.795c-.087-.493-.195-.909-.323-1.246-.232-.58-.57-1.093-1.011-1.534s-.954-.779-1.534-1.011c-.337-.129-.752-.236-1.246-.323S21.619 5.03 20.917 5c-.704-.029-1.264-.046-1.682-.052-.418-.007-1.03-.007-1.839 0zm3.531 6.125c1.336 1.336 2.004 2.957 2.004 4.862s-.668 3.527-2.004 4.863c-1.336 1.336-2.957 2.004-4.863 2.004s-3.527-.668-4.863-2.004c-1.338-1.336-2.005-2.957-2.005-4.863s.668-3.527 2.004-4.863c1.336-1.336 2.957-2.004 4.863-2.004 1.907 0 3.527.668 4.864 2.004zm-1.709 8.018c.871-.871 1.307-1.923 1.307-3.155s-.436-2.284-1.307-3.155-1.923-1.307-3.155-1.307-2.284.436-3.155 1.307-1.307 1.923-1.307 3.155.436 2.284 1.307 3.155 1.923 1.307 3.155 1.307 2.284-.436 3.155-1.307zm5.125-11.434c.314.314.471.691.471 1.132s-.157.82-.471 1.132c-.314.314-.691.471-1.132.471s-.82-.157-1.132-.471c-.314-.314-.471-.691-.471-1.132s.157-.82.471-1.132c.314-.314.691-.471 1.132-.471.441.002.818.159 1.132.471z"/></svg>