<?xml version="1.0" ?><!DOCTYPE svg  PUBLIC '-//W3C//DTD SVG 1.1//EN'  'http://www.w3.org/Graphics/SVG/1.1/DTD/svg11.dtd' [
	<!ENTITY stroke_color "#666666">
	<!ENTITY fill_color "#ffffff">
]><svg enable-background="new 0 0 55 55" height="55px" id="Layer_1" version="1.1" viewBox="0 0 55 55" width="55px" x="0px" xml:space="preserve" xmlns="http://www.w3.org/2000/svg" xmlns:xlink="http://www.w3.org/1999/xlink" y="0px"><g display="block" id="module-date_x5F_and_x5F_time">
	<g display="inline">
		<defs>
			<path d="M29.891,31.641h17.255c0.346-1.563,0.534-3.187,0.534-4.854c0-12.35-10.013-22.362-22.362-22.362     c-12.351,0-22.362,10.012-22.362,22.362c0,12.351,10.011,22.362,22.362,22.362c1.567,0,3.097-0.163,4.573-0.47V31.641z      M26.286,28.242c-0.034,0.022-0.071,0.038-0.107,0.058c-0.064,0.037-0.127,0.075-0.196,0.104     c-0.039,0.016-0.079,0.023-0.118,0.036c-0.069,0.023-0.138,0.049-0.21,0.062c-0.048,0.01-0.098,0.01-0.147,0.015     c-0.063,0.007-0.126,0.02-0.191,0.02c-0.071,0-0.139-0.013-0.208-0.021c-0.043-0.006-0.086-0.005-0.129-0.014     c-0.078-0.015-0.152-0.041-0.226-0.066c-0.034-0.012-0.069-0.019-0.102-0.032c-0.077-0.031-0.147-0.072-0.217-0.113     c-0.028-0.017-0.059-0.028-0.086-0.047c-0.193-0.129-0.359-0.294-0.487-0.487c-0.028-0.042-0.047-0.086-0.071-0.13     c-0.031-0.057-0.065-0.111-0.09-0.171c-0.023-0.056-0.037-0.115-0.054-0.173c-0.015-0.051-0.035-0.101-0.045-0.153     c-0.023-0.114-0.035-0.229-0.035-0.344V10.349c0-0.966,0.783-1.75,1.75-1.75s1.75,0.784,1.75,1.75v12.212l3.973-3.973     c0.684-0.683,1.792-0.683,2.476,0c0.683,0.683,0.683,1.792,0,2.475l-6.96,6.96c-0.001,0.002-0.003,0.003-0.005,0.004     C26.469,28.107,26.381,28.179,26.286,28.242z" id="SVGID_5_"/>
		</defs>
		<clipPath id="SVGID_6_">
			<use overflow="visible" xlink:href="#SVGID_5_"/>
		</clipPath>
		<circle clip-path="url(#SVGID_6_)" cx="25.318" cy="26.786" fill="&fill_color;" r="22.362"/>
	</g>
	<rect display="inline" fill="none" height="19.319" stroke="&fill_color;" stroke-width="2" width="21.064" x="29.891" y="31.641"/>
	<g display="inline">
		<path d="M39.056,44.155c0.527,0,0.936,0.239,0.936,0.792c0,0.551-0.408,0.791-0.864,0.791h-4.006    c-0.527,0-0.936-0.24-0.936-0.791c0-0.252,0.156-0.469,0.276-0.612c0.995-1.188,2.075-2.267,2.986-3.586    c0.216-0.312,0.42-0.684,0.42-1.115c0-0.491-0.372-0.924-0.863-0.924c-1.38,0-0.72,1.943-1.871,1.943    c-0.575,0-0.876-0.408-0.876-0.876c0-1.511,1.344-2.723,2.818-2.723c1.476,0,2.663,0.972,2.663,2.495    c0,1.667-1.858,3.322-2.878,4.605H39.056z" fill="&fill_color;"/>
		<path d="M46.339,39.25c0,0.756-0.323,1.415-0.983,1.835c0.863,0.396,1.463,1.199,1.463,2.146    c0,1.439-1.318,2.651-3.021,2.651c-1.775,0-2.879-1.309-2.879-2.256c0-0.467,0.492-0.803,0.924-0.803    c0.815,0,0.623,1.402,1.979,1.402c0.623,0,1.127-0.479,1.127-1.115c0-1.679-2.039-0.443-2.039-1.858    c0-1.259,1.703-0.408,1.703-1.739c0-0.455-0.323-0.804-0.863-0.804c-1.139,0-0.982,1.176-1.799,1.176    c-0.492,0-0.779-0.444-0.779-0.888c0-0.936,1.283-1.943,2.614-1.943C45.512,37.055,46.339,38.314,46.339,39.25z" fill="&fill_color;"/>
	</g>
</g></svg>