<?xml version="1.0" ?><!DOCTYPE svg  PUBLIC '-//W3C//DTD SVG 1.1//EN'  'http://www.w3.org/Graphics/SVG/1.1/DTD/svg11.dtd' [
	<!ENTITY stroke_color "#666666">
	<!ENTITY fill_color "#ffffff">
]><svg enable-background="new 0 0 55 55" height="55px" id="Layer_1" version="1.1" viewBox="0 0 55 55" width="55px" x="0px" xml:space="preserve" xmlns="http://www.w3.org/2000/svg" xmlns:xlink="http://www.w3.org/1999/xlink" y="0px"><g display="block" id="module-language">
	<g display="inline">
		<g>
			<path clip-rule="evenodd" d="M35.805,13.962c-0.346-0.084-0.779-0.072-0.725-0.6     c0.24,0,0.482,0,0.725,0l-0.092,0.301L35.805,13.962z" fill="&fill_color;" fill-rule="evenodd"/>
			<path clip-rule="evenodd" d="M36.438,14.063l0.09-0.3c1.146-0.067,1.871,0.331,2.533,0.8     c3.684,0.596,9.051-0.669,10.676,2.2c-0.164,0.485-0.727,0.53-1.268,0.6c0.531,0.215,0.637,0.898,0.543,1.8     c-0.928-0.174-1.295-0.968-1.447-2c-0.553,0.389-1.396,0.457-2.352,0.4c-0.121,0.867,0.84,0.539,1.447,0.6     c0.057,0.472,0.629,0.373,0.543,1l-0.271,0.1l0.09,0.3c-0.549,0.658-0.812,1.635-0.723,3c-0.551,0.01-0.703-0.422-1.086-0.6     c0.26,1.426,0.908,1.89,0.723,3.4c-1.1-1.013-1.793,1.516-1.99,2.799c-0.627,0.161-0.693-0.297-1.266-0.199l-0.182-0.1l-0.18,0.1     c-0.475-1.659-2.096-3.383-3.076-1c0,0.4,0,0.8,0,1.199l-0.271-0.1l0.09,0.301c-1.533,0.073-0.889-3.936-3.438-3.4     c-0.357,1.338-1.098,2.254-2.535,2.4c-0.164,0.784,0.955,0.145,1.086,0.6c-0.146,1.638-1.449,1.998-1.99,3.2     c0.646,2.376-0.838,2.551-0.902,4.601c-0.834,0.479-0.881,1.828-1.811,2.2c-3.492-0.651-1.328-6.379-3.258-8.601     c-0.848-0.263-1.984-0.205-3.075-0.2c-2.032-1.712-0.716-5.163,0.724-6.8c-0.372-0.323-0.419-1.003-0.362-1.801     c0.481-0.002,1.034,0.076,1.267-0.2c-0.148-0.703-0.412-1.279-1.267-1.201c0.081-0.912,0.522-1.423,1.267-1.6     c0.269,0.237,0.282,0.755,0.543,1c0.512,0.165,0.469-0.282,0.904-0.201c0.191-0.877-0.611-0.657-0.543-1.4     c0.357-0.828,1.436-1.889,2.354-2c1.213-0.147,1.916,0.831,3.617,0.6c0.695-0.094,1.172-0.681,2.172-1     c0.594-0.19,1.852,0.085,2.354-0.601L36.438,14.063z M27.842,17.963c0.438-0.392,0.416-1-0.18-1.2     C27.766,17.115,27.441,17.938,27.842,17.963z M27.48,21.563c-0.186-0.944-2.604-0.928-2.353,0.4c0.483,0,0.966,0,1.448,0     l0.09,0.3l0.271-0.101c0,0.066,0,0.134,0,0.201c0.442,1.067,3.484,1.27,3.98,0c-1.439,0.273-2.379-0.674-3.256-0.4l0.09-0.301     L27.48,21.563z M32.365,26.764c0.031-0.501-0.277-0.626-0.541-0.8C31.791,26.464,32.102,26.59,32.365,26.764z" fill="&fill_color;" fill-rule="evenodd"/>
			<path clip-rule="evenodd" d="M48.018,21.863l0.09-0.3c0.316,0.184,0.4,0.625,0.361,1.2     c-0.547,0.261-1.043,0.579-1.627,0.8c-0.492-1.168,0.654-0.949,0.904-1.8L48.018,21.863z" fill="&fill_color;" fill-rule="evenodd"/>
			<path clip-rule="evenodd" d="M42.77,28.864l0.092-0.301c0.662,0.467,0.711,1.615,0.904,2.601     l-0.332-0.1l-0.211,0.3c-0.619-0.582-0.996-1.434-1.268-2.4c0.146,0.105,0.295,0.209,0.543,0.2c0-0.134,0-0.267,0-0.399     L42.77,28.864z" fill="&fill_color;" fill-rule="evenodd"/>
			<path clip-rule="evenodd" d="M11.376,25.163c0.423,0.067,0.78,0.206,0.905,0.601     l-0.271,0.233l0.09,0.367c-0.21-0.033-0.322,0.044-0.361,0.199c-0.465-0.02-0.291-0.744-0.543-1l0.271-0.1L11.376,25.163z" fill="&fill_color;" fill-rule="evenodd"/>
			<path clip-rule="evenodd" d="M46.299,27.764c-0.281-0.29-0.381-0.78-0.363-1.399     c0.182,0,0.363,0,0.545,0c0.104,0.418,0.447,0.57,0.361,1.199l-0.332-0.1L46.299,27.764z" fill="&fill_color;" fill-rule="evenodd"/>
			<path clip-rule="evenodd" d="M45.936,30.364c0.131,0.877-0.602,0.8-1.266,0.8     c-0.264-0.44-0.549-0.858-0.543-1.601c0.738-0.051,0.895-0.744,1.809-0.6c-0.057,0.465,0.029,0.768,0.182,1l-0.271,0.101     L45.936,30.364z" fill="&fill_color;" fill-rule="evenodd"/>
			<path clip-rule="evenodd" d="M46.389,30.265l-0.09-0.301c0.42-0.063,0.693,0.033,0.904,0.2     c-0.332,0.501-0.145,1.574-1.086,1.4c0-0.4,0-0.8,0-1.2L46.389,30.265z" fill="&fill_color;" fill-rule="evenodd"/>
			<path clip-rule="evenodd" d="M48.65,31.164c-0.553,0.146-0.531-0.345-1.086-0.199     c-0.086-0.716,1.123-1.144,1.268-0.4l-0.271,0.233L48.65,31.164z" fill="&fill_color;" fill-rule="evenodd"/>
			<path clip-rule="evenodd" d="M49.104,30.931l-0.092-0.366c0.926-0.487,1.51,0.948,2.715,0.8     c-0.617,0.261-0.084,0.855-0.361,1.199" fill="&fill_color;" fill-rule="evenodd"/>
			<path clip-rule="evenodd" d="M49.918,32.765c0.291,0.117,1.43,2.391,1.447,3     c0.045,1.674-1.633,3.377-2.715,3.201c-0.922-0.152-0.688-0.955-1.447-1.601c-0.98,0.12-1.854,0.957-2.895,0.399     c-0.109-1.053,0.133-1.718,0.18-2.6c1.658-0.205,3.107-3.646,4.705-1.4C49.775,33.807,49.633,33.051,49.918,32.765z" fill="&fill_color;" fill-rule="evenodd"/>
			<path clip-rule="evenodd" d="M33.451,33.164c0.725,1.004,0.084,2.368-0.725,2.8     C32.002,34.962,32.742,33.707,33.451,33.164z" fill="&fill_color;" fill-rule="evenodd"/>
			<path clip-rule="evenodd" d="M48.65,39.165c0.383,0.062,0.039,0.948-0.361,0.8     C48.082,39.336,48.572,39.479,48.65,39.165z" fill="&fill_color;" fill-rule="evenodd"/>
			<path clip-rule="evenodd" d="M16.805,12.962c2.05,0,4.102,0,6.15,0     c0.007,0.195,0.223,0.155,0.363,0.2c0.324,0.701-0.65,1.677-1.084,2.2c-1.523,0.317-2.302,1.457-3.621,2     c-0.971-0.425-0.523-1.94-0.724-2.8c-0.439-0.464-2.139-0.687-2.532,0c1.822-0.026,1.732,2.399,0.18,2.6     c1.181-0.023,1.775,2.452,0.543,2.8l0.091-0.3l-0.272-0.1c-0.099-0.657-1.186,0.234-0.541,0.4l-0.092,0.3l0.271,0.101     c-2.093,0.085-2.461,2.079-3.98,2.799c0,0.201,0,0.4,0,0.601l-0.332-0.1l-0.21,0.3c-0.761-0.482-2.09-0.11-2.534,0.399     c0,0.534,0,1.067,0,1.601c0.622,0.076,1.287-0.828,1.628-0.4c-0.564,1.371,0.746,1.471,0.906,2.6l-0.272,0.201l0.272,0.199     c-0.433,0.062-1.751-0.617-2.534-1.199C7.746,26.816,7,25.966,6.673,25.163c-0.38-0.229-0.707,0.123-1.086-0.399     c-0.229-1.306-0.774-2.063-0.724-3.2c0.032-0.728,0.597-0.782,0.724-1.601c0.033-0.217-0.352-0.856-0.362-1.399     c-0.01-0.526,0.43-0.783,0-1.201c-1.454-0.274-1.845,0.627-3.076,0.6l0.09-0.199l-0.09-0.2c-0.231-0.521-0.397-0.604-0.182-1.2     c1.83-1.044,4.094-1.609,7.057-1.4c0.688-0.04,0.687-0.841,1.448-0.8c1.325-0.132,2.296,0.13,3.257,0.4     c0.705-0.021,0.311-1.256,0.904-1.4C15.303,13.035,16.436,13.422,16.805,12.962z M14.452,15.963     c0.286-0.02,0.628,0.027,0.542-0.4c-0.119,0-0.24,0-0.361,0C14.633,15.764,14.486,15.801,14.452,15.963z M11.92,17.763     c0.789-0.139,0.803,0.577,1.447,0.6c0.266-0.505,0.639-0.893,0.723-1.6C13.093,16.545,11.914,16.393,11.92,17.763z" fill="&fill_color;" fill-rule="evenodd"/>
			<path clip-rule="evenodd" d="M11.467,28.364l-0.091-0.201     c1.866-1.496,4.541,0.503,5.247,2.201c0.822,0.426,2.057,0.393,2.352,1.4c-0.152,1.164-0.635,1.965-0.723,3.199     c-0.226,0.484-0.742,0.648-1.268,0.801c-0.201,2.777-2.827,3.017-2.17,6.201c0.453-0.035,0.566,0.307,0.723,0.6     c-0.36,0-0.723,0-1.085,0c-1.601-1.566-1.526-4.982-1.81-8.001c-1.498-1.305-2.468-3.841-1.267-6.001L11.467,28.364z" fill="&fill_color;" fill-rule="evenodd"/>
			<g>
				
					<path clip-rule="evenodd" d="      M48.018,21.863" fill="&fill_color;" fill-rule="evenodd" stroke="#000000" stroke-linecap="round" stroke-width="2.1637"/>
				
					<path clip-rule="evenodd" d="      M46.932,19.263" fill="&fill_color;" fill-rule="evenodd" stroke="#000000" stroke-linecap="round" stroke-width="2.1637"/>
				
					<path clip-rule="evenodd" d="      M43.434,31.064" fill="&fill_color;" fill-rule="evenodd" stroke="#000000" stroke-linecap="round" stroke-width="2.8752"/>
				
					<path clip-rule="evenodd" d="      M42.498,27.864" fill="&fill_color;" fill-rule="evenodd" stroke="#000000" stroke-linecap="round" stroke-width="2.1506"/>
				
					<path clip-rule="evenodd" d="      M38.971,28.063" fill="&fill_color;" fill-rule="evenodd" stroke="#000000" stroke-linecap="round" stroke-width="1.2247"/>
				
					<path clip-rule="evenodd" d="      M26.851,21.793" fill="&fill_color;" fill-rule="evenodd" stroke="#000000" stroke-linecap="round" stroke-width="2.1448"/>
				
					<path clip-rule="evenodd" d="      M12.01,25.997" fill="&fill_color;" fill-rule="evenodd" stroke="#000000" stroke-linecap="round" stroke-width="2.8087"/>
				
					<path clip-rule="evenodd" d="      M46.51,27.464" fill="&fill_color;" fill-rule="evenodd" stroke="#000000" stroke-linecap="round" stroke-width="3.5214"/>
				
					<path clip-rule="evenodd" d="      M46.752,28.264" fill="&fill_color;" fill-rule="evenodd" stroke="#000000" stroke-linecap="round" stroke-width="3.5214"/>
				
					<path clip-rule="evenodd" d="      M45.846,30.064" fill="&fill_color;" fill-rule="evenodd" stroke="#000000" stroke-linecap="round" stroke-width="2.1602"/>
				
					<path clip-rule="evenodd" d="      M49.104,30.931" fill="&fill_color;" fill-rule="evenodd" stroke="#000000" stroke-linecap="round" stroke-width="3.1091"/>
				
					<path clip-rule="evenodd" d="      M46.752,32.165" fill="&fill_color;" fill-rule="evenodd" stroke="#000000" stroke-linecap="round" stroke-width="2.1381"/>
				
					<path clip-rule="evenodd" d="      M15.266,20.263" fill="&fill_color;" fill-rule="evenodd" stroke="#000000" stroke-linecap="round" stroke-width="1.6279"/>
				
					<path clip-rule="evenodd" d="      M11.225,23.664" fill="&fill_color;" fill-rule="evenodd" stroke="#000000" stroke-linecap="round" stroke-width="2.9155"/>
				
					<path clip-rule="evenodd" d="      M11.467,28.364" fill="&fill_color;" fill-rule="evenodd" stroke="#000000" stroke-linecap="round" stroke-width="2.0976"/>
				
					<path clip-rule="evenodd" d="      M10.743,28.364" fill="&fill_color;" fill-rule="evenodd" stroke="#000000" stroke-linecap="round" stroke-width="2.0976"/>
			</g>
		</g>
	</g>
	<rect display="inline" fill="none" height="30.334" stroke="&fill_color;" stroke-width="3.5" width="50.67" x="2.25" y="12.625"/>
</g></svg>