<?xml version="1.0" encoding="UTF-8"?>
<!DOCTYPE svg PUBLIC "-//W3C//DTD SVG 1.1//EN" "http://www.w3.org/Graphics/SVG/1.1/DTD/svg11.dtd" [
	<!ENTITY stroke_color "#010101">
	<!ENTITY fill_color "#ffffff">
]>
<svg version="1.1" xmlns="http://www.w3.org/2000/svg" xmlns:xlink="http://www.w3.org/1999/xlink" x="0px" y="0px" width="55" height="55" viewBox="0, 0, 55, 55">
  <g id="module-keyboard">
    <g>
      <path d="M6.331,40.69 C5.872,40.69 5.5,40.171 5.5,39.53 L5.5,15.47 C5.5,14.829 5.872,14.31 6.331,14.31 L48.669,14.31 C49.128,14.31 49.5,14.829 49.5,15.47 L49.5,39.53 C49.5,40.171 49.128,40.69 48.669,40.69 z" fill="&fill_color;"/>
      <path d="M6.331,40.69 C5.872,40.69 5.5,40.171 5.5,39.53 L5.5,15.47 C5.5,14.829 5.872,14.31 6.331,14.31 L48.669,14.31 C49.128,14.31 49.5,14.829 49.5,15.47 L49.5,39.53 C49.5,40.171 49.128,40.69 48.669,40.69 z" fill-opacity="0" stroke="&stroke_color;" stroke-width="3.5"/>
    </g>
    <path d="M12.834,23.257 C12.281,23.257 11.834,22.81 11.834,22.257 L11.834,20.34 C11.834,19.788 12.281,19.34 12.834,19.34 L16.538,19.34 C17.09,19.34 17.538,19.788 17.538,20.34 L17.538,22.257 C17.538,22.81 17.09,23.257 16.538,23.257 z M12.834,23.257" fill="&stroke_color;"/>
    <path d="M21.376,23.257 C20.824,23.257 20.376,22.81 20.376,22.257 L20.376,20.34 C20.376,19.788 20.824,19.34 21.376,19.34 L25.081,19.34 C25.633,19.34 26.081,19.788 26.081,20.34 L26.081,22.257 C26.081,22.81 25.633,23.257 25.081,23.257 z M21.376,23.257" fill="&stroke_color;"/>
    <path d="M29.919,23.257 C29.367,23.257 28.919,22.81 28.919,22.257 L28.919,20.34 C28.919,19.788 29.367,19.34 29.919,19.34 L33.624,19.34 C34.176,19.34 34.624,19.788 34.624,20.34 L34.624,22.257 C34.624,22.81 34.176,23.257 33.624,23.257 z M29.919,23.257" fill="&stroke_color;"/>
    <path d="M38.462,23.257 C37.91,23.257 37.462,22.81 37.462,22.257 L37.462,20.34 C37.462,19.788 37.91,19.34 38.462,19.34 L42.166,19.34 C42.719,19.34 43.166,19.788 43.166,20.34 L43.166,22.257 C43.166,22.81 42.719,23.257 42.166,23.257 z M38.462,23.257" fill="&stroke_color;"/>
    <path d="M25.658,29.444 C25.105,29.444 24.658,28.996 24.658,28.444 L24.658,26.527 C24.658,25.975 25.105,25.527 25.658,25.527 L29.362,25.527 C29.915,25.527 30.362,25.975 30.362,26.527 L30.362,28.444 C30.362,28.996 29.915,29.444 29.362,29.444 z M25.658,29.444" fill="&stroke_color;"/>
    <path d="M34.672,25.527 L42.165,25.527 C42.718,25.527 43.166,25.991 43.166,26.563 L43.166,28.408 C43.166,28.98 42.718,29.444 42.165,29.444 L34.672,29.444 C34.119,29.444 33.67,28.98 33.67,28.408 L33.67,26.563 C33.67,25.991 34.119,25.527 34.672,25.527 z" fill="&stroke_color;"/>
    <path d="M18.252,31.714 L36.748,31.714 C37.578,31.714 38.251,32.155 38.251,32.699 L38.251,34.645 C38.251,35.189 37.578,35.631 36.748,35.631 L18.252,35.631 C17.422,35.631 16.749,35.189 16.749,34.645 L16.749,32.699 C16.749,32.155 17.422,31.714 18.252,31.714 z" fill="&stroke_color;"/>
    <path d="M12.838,25.527 L20.346,25.527 C20.9,25.527 21.35,25.991 21.35,26.563 L21.35,28.408 C21.35,28.98 20.9,29.444 20.346,29.444 L12.838,29.444 C12.283,29.444 11.834,28.98 11.834,28.408 L11.834,26.563 C11.834,25.991 12.283,25.527 12.838,25.527 z" fill="&stroke_color;"/>
  </g>
  <defs/>
</svg>
