<?xml version="1.0" ?><!DOCTYPE svg  PUBLIC '-//W3C//DTD SVG 1.1//EN'  'http://www.w3.org/Graphics/SVG/1.1/DTD/svg11.dtd' [
	<!ENTITY stroke_color "#666666">
	<!ENTITY fill_color "#ffffff">
]><svg enable-background="new 0 0 55 55" height="55px" id="Layer_1" version="1.1" viewBox="0 0 55 55" width="55px" x="0px" xml:space="preserve" xmlns="http://www.w3.org/2000/svg" xmlns:xlink="http://www.w3.org/1999/xlink" y="0px"><g display="block" id="module-keyboard">
	<rect display="inline" fill="&fill_color;" height="23.326" width="54" x="0.5" y="15.837"/>
	<g display="inline">
		<path d="M52.61,28.081c0,0.55-0.45,1-1,1h-5.443c-0.55,0-1-0.45-1-1v-5.444c0-0.55,0.45-1,1-1h5.443c0.55,0,1,0.45,1,1V28.081z"/>
	</g>
	<g display="inline">
		<path d="M52.61,19.941c0,0.55-0.45,1-1,1h-5.412c-0.55,0-1-0.45-1-1v-1.368c0-0.55,0.45-1,1-1h5.412c0.55,0,1,0.45,1,1V19.941z"/>
	</g>
	<g display="inline">
		<path d="M52.61,32.267c0,0.55-0.45,1-1,1h-5.412c-0.55,0-1-0.45-1-1v-1.367c0-0.55,0.45-1,1-1h5.412c0.55,0,1,0.45,1,1V32.267z"/>
	</g>
	<g display="inline">
		<path d="M39.11,36.403c0,0.55-0.45,1-1,1H13.176c-0.55,0-1-0.45-1-1v-1.366c0-0.55,0.45-1,1-1H38.11c0.55,0,1,0.45,1,1V36.403z"/>
	</g>
	<g display="inline">
		<g>
			<path d="M5.889,19.977c0,0.55-0.45,1-1,1H3.549c-0.55,0-1-0.45-1-1v-1.339c0-0.55,0.45-1,1-1h1.339c0.55,0,1,0.45,1,1V19.977z"/>
		</g>
		<g>
			<path d="M10.65,19.977c0,0.55-0.45,1-1,1H8.311c-0.55,0-1-0.45-1-1v-1.339c0-0.55,0.45-1,1-1H9.65c0.55,0,1,0.45,1,1V19.977z"/>
		</g>
		<g>
			<path d="M15.411,19.977c0,0.55-0.45,1-1,1h-1.339c-0.55,0-1-0.45-1-1v-1.339c0-0.55,0.45-1,1-1h1.339c0.55,0,1,0.45,1,1V19.977z"/>
		</g>
		<g>
			<path d="M20.173,19.978c0,0.55-0.45,1-1,1h-1.34c-0.55,0-1-0.45-1-1v-1.34c0-0.55,0.45-1,1-1h1.34c0.55,0,1,0.45,1,1V19.978z"/>
		</g>
		<g>
			<path d="M24.934,19.977c0,0.55-0.45,1-1,1h-1.34c-0.55,0-1-0.45-1-1v-1.339c0-0.55,0.45-1,1-1h1.34c0.55,0,1,0.45,1,1V19.977z"/>
		</g>
		<g>
			<path d="M29.695,19.978c0,0.55-0.45,1-1,1h-1.34c-0.55,0-1-0.45-1-1v-1.34c0-0.55,0.45-1,1-1h1.34c0.55,0,1,0.45,1,1V19.978z"/>
		</g>
		<g>
			<path d="M34.457,19.977c0,0.55-0.45,1-1,1h-1.341c-0.55,0-1-0.45-1-1v-1.339c0-0.55,0.45-1,1-1h1.341c0.55,0,1,0.45,1,1V19.977z"/>
		</g>
		<g>
			<path d="M39.218,19.977c0,0.55-0.45,1-1,1h-1.341c-0.55,0-1-0.45-1-1v-1.339c0-0.55,0.45-1,1-1h1.341c0.55,0,1,0.45,1,1V19.977z"/>
		</g>
		<g>
			<path d="M43.979,19.977c0,0.55-0.45,1-1,1h-1.341c-0.55,0-1-0.45-1-1v-1.339c0-0.55,0.45-1,1-1h1.341c0.55,0,1,0.45,1,1V19.977z"/>
		</g>
	</g>
	<g display="inline">
		<g>
			<path d="M5.889,24.038c0,0.55-0.45,1-1,1H3.549c-0.55,0-1-0.45-1-1v-1.339c0-0.55,0.45-1,1-1h1.339c0.55,0,1,0.45,1,1V24.038z"/>
		</g>
		<g>
			<path d="M10.65,24.038c0,0.55-0.45,1-1,1H8.311c-0.55,0-1-0.45-1-1v-1.339c0-0.55,0.45-1,1-1H9.65c0.55,0,1,0.45,1,1V24.038z"/>
		</g>
		<g>
			<path d="M15.411,24.038c0,0.55-0.45,1-1,1h-1.339c-0.55,0-1-0.45-1-1v-1.339c0-0.55,0.45-1,1-1h1.339c0.55,0,1,0.45,1,1V24.038z"/>
		</g>
		<g>
			<path d="M20.173,24.038c0,0.55-0.45,1-1,1h-1.34c-0.55,0-1-0.45-1-1v-1.34c0-0.55,0.45-1,1-1h1.34c0.55,0,1,0.45,1,1V24.038z"/>
		</g>
		<g>
			<path d="M24.934,24.038c0,0.55-0.45,1-1,1h-1.34c-0.55,0-1-0.45-1-1v-1.339c0-0.55,0.45-1,1-1h1.34c0.55,0,1,0.45,1,1V24.038z"/>
		</g>
		<g>
			<path d="M29.695,24.038c0,0.55-0.45,1-1,1h-1.34c-0.55,0-1-0.45-1-1v-1.34c0-0.55,0.45-1,1-1h1.34c0.55,0,1,0.45,1,1V24.038z"/>
		</g>
		<g>
			<path d="M34.457,24.038c0,0.55-0.45,1-1,1h-1.341c-0.55,0-1-0.45-1-1v-1.339c0-0.55,0.45-1,1-1h1.341c0.55,0,1,0.45,1,1V24.038z"/>
		</g>
		<g>
			<path d="M39.218,24.038c0,0.55-0.45,1-1,1h-1.341c-0.55,0-1-0.45-1-1v-1.339c0-0.55,0.45-1,1-1h1.341c0.55,0,1,0.45,1,1V24.038z"/>
		</g>
		<g>
			<path d="M43.979,24.038c0,0.55-0.45,1-1,1h-1.341c-0.55,0-1-0.45-1-1v-1.339c0-0.55,0.45-1,1-1h1.341c0.55,0,1,0.45,1,1V24.038z"/>
		</g>
	</g>
	<g display="inline">
		<g>
			<path d="M5.889,28.099c0,0.55-0.45,1-1,1.001H3.549c-0.55,0.001-1-0.449-1-0.999V26.76c0-0.55,0.45-1,1-1h1.339     c0.55,0,1,0.45,1,1V28.099z"/>
		</g>
		<g>
			<path d="M10.65,28.099c0,0.55-0.45,1-1,1.001H8.311c-0.55,0.001-1-0.449-1-0.999V26.76c0-0.55,0.45-1,1-1H9.65c0.55,0,1,0.45,1,1     V28.099z"/>
		</g>
		<g>
			<path d="M15.411,28.099c0,0.55-0.45,1-1,1L13.072,29.1c-0.55,0-1-0.45-1-1v-1.34c0-0.55,0.45-1,1-1h1.339c0.55,0,1,0.45,1,1     V28.099z"/>
		</g>
		<g>
			<path d="M20.173,28.099c0,0.55-0.45,1-1,1l-1.34,0.001c-0.55,0-1-0.45-1-1v-1.34c0-0.55,0.45-1,1-1h1.34c0.55,0,1,0.45,1,1     V28.099z"/>
		</g>
		<g>
			<path d="M24.934,28.099c0,0.55-0.45,1-1,1l-1.34,0.001c-0.55,0-1-0.45-1-1v-1.34c0-0.55,0.45-1,1-1h1.34c0.55,0,1,0.45,1,1     V28.099z"/>
		</g>
		<g>
			<path d="M29.695,28.099c0,0.55-0.45,1-1,1l-1.34,0.001c-0.55,0-1-0.45-1-1v-1.34c0-0.55,0.45-1,1-1h1.34c0.55,0,1,0.45,1,1     V28.099z"/>
		</g>
		<g>
			<path d="M34.457,28.099c0,0.55-0.45,1-1,1L32.116,29.1c-0.55,0-1-0.45-1-1v-1.34c0-0.55,0.45-1,1-1h1.341c0.55,0,1,0.45,1,1     V28.099z"/>
		</g>
		<g>
			<path d="M39.218,28.099c0,0.55-0.45,1-1,1h-1.341c-0.55,0-1-0.45-1-1V26.76c0-0.55,0.45-1,1-1h1.341c0.55,0,1,0.45,1,1V28.099z"/>
		</g>
		<g>
			<path d="M43.979,28.099c0,0.55-0.45,1-1,1h-1.341c-0.55,0-1-0.45-1-1V26.76c0-0.55,0.45-1,1-1h1.341c0.55,0,1,0.45,1,1V28.099z"/>
		</g>
	</g>
	<g display="inline">
		<g>
			<path d="M5.889,32.161c0,0.55-0.45,1-1,1H3.549c-0.55,0-1-0.45-1-1v-1.34c0-0.55,0.45-1,1-1h1.339c0.55,0,1,0.45,1,1V32.161z"/>
		</g>
		<g>
			<path d="M10.65,32.161c0,0.55-0.45,1-1,1H8.311c-0.55,0-1-0.45-1-1v-1.34c0-0.55,0.45-1,1-1H9.65c0.55,0,1,0.45,1,1V32.161z"/>
		</g>
		<g>
			<path d="M15.411,32.161c0,0.55-0.45,1-1,1h-1.339c-0.55,0-1-0.45-1-1v-1.34c0-0.55,0.45-1,1-1h1.339c0.55,0,1,0.45,1,1V32.161z"/>
		</g>
		<g>
			<path d="M20.173,32.161c0,0.55-0.45,1-1,1h-1.34c-0.55,0-1-0.45-1-1v-1.34c0-0.55,0.45-1,1-1h1.34c0.55,0,1,0.45,1,1V32.161z"/>
		</g>
		<g>
			<path d="M24.934,32.161c0,0.55-0.45,1-1,1h-1.34c-0.55,0-1-0.45-1-1v-1.34c0-0.55,0.45-1,1-1h1.34c0.55,0,1,0.45,1,1V32.161z"/>
		</g>
		<g>
			<path d="M29.695,32.161c0,0.55-0.45,1-1,1h-1.34c-0.55,0-1-0.45-1-1v-1.34c0-0.55,0.45-1,1-1h1.34c0.55,0,1,0.45,1,1V32.161z"/>
		</g>
		<g>
			<path d="M34.457,32.161c0,0.55-0.45,1-1,1h-1.341c-0.55,0-1-0.45-1-1v-1.34c0-0.55,0.45-1,1-1h1.341c0.55,0,1,0.45,1,1V32.161z"/>
		</g>
		<g>
			<path d="M39.218,32.161c0,0.55-0.45,1-1,1h-1.341c-0.55,0-1-0.45-1-1v-1.34c0-0.55,0.45-1,1-1h1.341c0.55,0,1,0.45,1,1V32.161z"/>
		</g>
		<g>
			<path d="M43.979,32.161c0,0.55-0.45,1-1,1h-1.341c-0.55,0-1-0.45-1-1v-1.34c0-0.55,0.45-1,1-1h1.341c0.55,0,1,0.45,1,1V32.161z"/>
		</g>
	</g>
</g></svg>