<?xml version="1.0" ?><!-- Created with Inkscape (http://www.inkscape.org/) --><!DOCTYPE svg  PUBLIC '-//W3C//DTD SVG 1.1//EN'  'http://www.w3.org/Graphics/SVG/1.1/DTD/svg11.dtd' [
	<!ENTITY stroke_color "#000000">
	<!ENTITY fill_color "#999999">
]><svg height="55" id="svg2" inkscape:version="0.48.3.1 r9886" sodipodi:docname="Nuevo documento 1" version="1.1" width="55" xmlns="http://www.w3.org/2000/svg" xmlns:cc="http://creativecommons.org/ns#" xmlns:dc="http://purl.org/dc/elements/1.1/" xmlns:inkscape="http://www.inkscape.org/namespaces/inkscape" xmlns:rdf="http://www.w3.org/1999/02/22-rdf-syntax-ns#" xmlns:sodipodi="http://sodipodi.sourceforge.net/DTD/sodipodi-0.dtd" xmlns:svg="http://www.w3.org/2000/svg">
  <defs id="defs4"/>
  <sodipodi:namedview bordercolor="#666666" borderopacity="1.0" id="base" inkscape:current-layer="layer1" inkscape:cx="78.421684" inkscape:cy="48.083261" inkscape:document-units="px" inkscape:pageopacity="0.0" inkscape:pageshadow="2" inkscape:window-height="524" inkscape:window-maximized="1" inkscape:window-width="1024" inkscape:window-x="0" inkscape:window-y="24" inkscape:zoom="2.8284271" pagecolor="#ffffff" showgrid="false"/>
  <metadata id="metadata7">
    <rdf:RDF>
      <cc:Work rdf:about="">
        <dc:format>image/svg+xml</dc:format>
        <dc:type rdf:resource="http://purl.org/dc/dcmitype/StillImage"/>
        <dc:title/>
      </cc:Work>
    </rdf:RDF>
  </metadata>
  <g id="layer1" inkscape:groupmode="layer" inkscape:label="Capa 1" transform="translate(0,-997.36218)">
    <g id="g3609" style="fill:&fill_color;;stroke:&stroke_color;">
      <path d="m 51.737067,1014.4878 c -0.896561,-0.491 -2.136203,-0.4777 -3.049823,-0.9914 -1.787436,-1.0122 -2.248036,-2.4926 -2.323856,-4.6913 -3.904683,-4.1985 -9.738963,-7.9155 -17.864875,-7.798 -2.20065,0.034 -4.274302,-0.066 -5.984022,0.8265 -0.489034,0.671 -0.0076,0.978 0.545897,1.1353 -0.549688,0.2617 -1.31167,0.2768 -1.186569,1.3212 5.155699,-0.7279 14.168695,1.1828 13.490114,5.622 -0.151638,0.9875 -1.393176,2.0395 -2.251828,2.9608 -2.393988,2.6214 -4.926346,4.6438 -7.128891,6.9507 l 0.63688,0.6368 c 1.406445,-0.9875 2.729488,-1.4861 3.988086,-1.4861 1.340102,0 2.12483,0.563 2.409151,0.8208 1.088004,-1.1714 2.210127,-2.3579 3.489574,-3.5123 0.919308,-0.8416 1.988356,-2.085 2.960737,-2.2348 l 1.795017,-0.1914 c 2.185485,0.089 3.673435,0.5497 4.691307,2.3333 0.513674,0.9118 0.513674,2.1609 0.987543,3.0575 0.337395,0.6141 1.777958,2.3086 2.486866,2.3295 0.559167,0.019 1.144869,-0.3772 1.698348,-0.9288 l 1.954238,-1.96 c 0.551584,-0.5572 0.951529,-1.1372 0.926888,-1.6983 0.03601,-0.7165 -1.656647,-2.1685 -2.270782,-2.502 z m -29.412124,10.4156 -1.404549,-1.4045 c -5.949904,5.0097 -12.3585133,10.8743 -18.0657961,16.2802 -0.8965609,0.8397 -2.75223338,1.9353 -2.8545891670953,2.9172 C -0.1573159,1044.1766 1.8007124,1045.4731 2.8545979,1046.4872 c 1.0538856,1.0103 2.2973188,3.0366 3.7795821,2.8621 0.9647982,-0.082 2.0755479,-1.9504 2.9266173,-2.8469 4.2743017,-4.4999 8.8405077,-9.4338 13.0465717,-14.2331 -0.591389,-0.7033 -0.943948,-1.1316 -0.943948,-1.1316 -0.259681,-0.364 -1.692662,-2.6007 0.661522,-6.2343 z m 14.443538,0.5479 c -0.69564,-0.6009 -2.780665,0.2729 -3.35689,-0.2295 -0.591389,-0.5061 0.324126,-2.3864 -0.11752,-2.7578 -0.907934,-0.7696 -1.461413,-1.2246 -1.461413,-1.2246 0,0 -1.633902,-1.5713 -5.330083,1.7609 l -14.756292,-14.7486 c -0.748714,-0.7507 -0.449228,-3.4555 -0.449228,-3.4555 l -6.9867303,-3.9805 -1.6945569,1.6964 3.9805027,6.9887 c 0,0 2.7067419,-0.2995 3.4573515,0.4473 l 14.769561,14.7715 c -2.9342,3.4706 -1.696453,5.2163 -1.696453,5.2163 0,0 0.451123,0.5459 1.224478,1.4614 0.371514,0.4341 2.251828,-0.4644 2.75792,0.1175 0.500406,0.5915 -0.371513,2.6727 0.227457,3.3683 5.055239,5.8039 13.128078,14.6596 15.400755,14.6596 1.690766,0 3.83076,-1.3817 5.587868,-3.1199 1.753317,-1.7381 3.106688,-3.8991 3.106688,-5.5709 0.0019,-2.2783 -8.855672,-10.3473 -14.663415,-15.4006 z" id="settings_1_" inkscape:connector-curvature="0" style="fill:&fill_color;;stroke:&stroke_color;;stroke-width:0.98214287000000000"/>
      <g display="block" id="stock-xo_1_" style="fill:&fill_color;;stroke:&stroke_color;;display:block" transform="matrix(0.8537359,0,0,0.8537359,3.3579534,1001.6908)">
	<path d="m 33.233,35.1 10.102,10.1 c 0.752,0.75 1.217,1.783 1.217,2.932 0,2.287 -1.855,4.143 -4.146,4.143 -1.145,0 -2.178,-0.463 -2.932,-1.211 l -10.102,-10.103 -10.1,10.1 c -0.75,0.75 -1.787,1.211 -2.934,1.211 -2.284,0 -4.143,-1.854 -4.143,-4.141 0,-1.146 0.465,-2.184 1.212,-2.934 L 21.511,35.095 11.409,24.995 c -0.747,-0.748 -1.212,-1.785 -1.212,-2.93 0,-2.289 1.854,-4.146 4.146,-4.146 1.143,0 2.18,0.465 2.93,1.214 L 27.372,29.235 37.474,19.132 c 0.754,-0.749 1.787,-1.214 2.934,-1.214 2.289,0 4.146,1.856 4.146,4.145 0,1.146 -0.467,2.18 -1.217,2.932 L 33.233,35.1 z" id="path3594" inkscape:connector-curvature="0" style="fill:&fill_color;;stroke:&stroke_color;;stroke-width:3.50000000000000000"/>

	<circle cx="27.371" cy="10.849" d="m 35.493,10.849 c 0,4.485657 -3.636343,8.122 -8.122,8.122 -4.485656,0 -8.121999,-3.636343 -8.121999,-8.122 0,-4.4856566 3.636343,-8.1219998 8.121999,-8.1219998 4.485657,0 8.122,3.6363432 8.122,8.1219998 z" id="circle3596" r="8.1219997" sodipodi:cx="27.371" sodipodi:cy="10.849" sodipodi:rx="8.1219997" sodipodi:ry="8.1219997" style="fill:&fill_color;;stroke:&stroke_color;;stroke-width:3.50000000000000000"/>

</g>
    </g>
  </g>
</svg>