<?xml version="1.0" ?><!DOCTYPE svg  PUBLIC '-//W3C//DTD SVG 1.1//EN'  'http://www.w3.org/Graphics/SVG/1.1/DTD/svg11.dtd' [
	<!ENTITY stroke_color "#000000">
	<!ENTITY fill_color "#ffffff">
]><svg enable-background="new 0 0 55 55" height="55px" id="svg2" inkscape:version="0.48.4 r9939" sodipodi:docname="python.svg" version="1.1" viewBox="0 0 55 55" width="55px" x="0px" xml:space="preserve" xmlns="http://www.w3.org/2000/svg" xmlns:cc="http://creativecommons.org/ns#" xmlns:dc="http://purl.org/dc/elements/1.1/" xmlns:inkscape="http://www.inkscape.org/namespaces/inkscape" xmlns:rdf="http://www.w3.org/1999/02/22-rdf-syntax-ns#" xmlns:sodipodi="http://sodipodi.sourceforge.net/DTD/sodipodi-0.dtd" xmlns:svg="http://www.w3.org/2000/svg" y="0px"><metadata id="metadata23"><rdf:RDF><cc:Work rdf:about=""><dc:format>image/svg+xml</dc:format><dc:type rdf:resource="http://purl.org/dc/dcmitype/StillImage"/><dc:title/></cc:Work></rdf:RDF></metadata><defs id="defs21"/><sodipodi:namedview bordercolor="#666666" borderopacity="1" gridtolerance="10" guidetolerance="10" id="namedview19" inkscape:current-layer="svg2" inkscape:cx="27.5" inkscape:cy="33.908898" inkscape:pageopacity="0" inkscape:pageshadow="2" inkscape:window-height="480" inkscape:window-maximized="0" inkscape:window-width="640" inkscape:window-x="206" inkscape:window-y="65" inkscape:zoom="4.2909091" objecttolerance="10" pagecolor="#ffffff" showgrid="false"/><polygon id="polygon9" points="43.818,48.914 10.932,48.914 10.932,6.088 31.874,6.088 43.818,18.027 " style="fill:&fill_color;;stroke:&stroke_color;;stroke-width:3.50000000000000000" transform="translate(0.93220339,-0.46610169)"/><polyline id="polyline11" points="43.818,18.027 31.874,18.027 31.874,6.088    " style="fill:none;stroke:&stroke_color;;stroke-width:3.50000000000000000" transform="translate(0.93220339,-0.46610169)"/><path d="m 28.395036,42.494141 c 2.88753,0 7.175424,-1.368539 7.175424,-5.393624 0,-4.477407 -3.733824,-4.891151 -5.282231,-5.344437 -1.711396,-0.385294 -2.851363,-0.922968 -2.919838,-1.666068 -0.117179,-1.274024 0.55841,-1.770228 1.902838,-1.770228 0,0 3.198079,1.766852 5.914903,0.356843 0.765764,-0.396867 2.137196,-2.251001 2.137196,-3.529846 0,-1.279328 -4.427256,-2.757813 -5.770719,-2.757813 -1.344428,0 -2.48777,1.855098 -2.48777,1.855098 -2.687891,0 -5.376264,2.558656 -5.376264,5.117312 0,2.558174 2.571676,4.559384 5.645342,5.117312 1.428816,0.226161 2.623756,1.070527 2.352266,2.622309 -0.220374,1.26004 -1.444247,2.558656 -4.031836,2.558656 -2.050397,0 -6.413518,-0.105606 -7.110325,-1.966973 -0.447982,-1.198797 0.08101,-2.509951 0.753227,-2.509951 l -0.01302,-0.07716 c -0.684752,-0.07619 -2.675353,0.07716 -2.675353,2.635329 -4.83e-4,3.280057 4.409414,4.753237 9.78616,4.753237 z" id="path3086" inkscape:connector-curvature="0" style="fill:&fill_color;;stroke:&stroke_color;;stroke-width:1.68776785999999990;stroke-linecap:round;stroke-linejoin:round"/><path d="M 35.185649,28.677109 C 33.920788,28.538712 31.997697,27.71267 31.584917,26.255403" id="path3088" inkscape:connector-curvature="0" style="fill:&stroke_color;;stroke:&stroke_color;;stroke-width:1.44665813000000010;stroke-linecap:round"/><circle cx="35.805" cy="10.96" d="m 37.481,10.96 c 0,0.925629 -0.75037,1.676 -1.676,1.676 -0.925629,0 -1.676,-0.750371 -1.676,-1.676 0,-0.925629 0.750371,-1.676 1.676,-1.676 0.92563,0 1.676,0.750371 1.676,1.676 z" id="circle3090" r="1.676" sodipodi:cx="35.805" sodipodi:cy="10.96" sodipodi:rx="1.676" sodipodi:ry="1.676" style="fill:&stroke_color;" transform="matrix(0.48221939,0,0,0.48221939,14.65323,19.103125)"/></svg>